<?xml version="1.0" standalone="no"?>
<!DOCTYPE svg PUBLIC "-//W3C//DTD SVG 20010904//EN"
 "http://www.w3.org/TR/2001/REC-SVG-20010904/DTD/svg10.dtd">
<svg version="1.0" xmlns="http://www.w3.org/2000/svg"
 width="700.000000pt" height="700.000000pt" viewBox="0 0 700.000000 700.000000"
 preserveAspectRatio="xMidYMid meet">
<metadata>
Created by potrace 1.11, written by Peter Selinger 2001-2013
</metadata>
<g transform="translate(0.000000,700.000000) scale(0.100000,-0.100000)"
fill="#ffffff" stroke="none">
<path d="M4797 5923 c-4 -3 -7 -89 -7 -190 l0 -183 405 0 405 0 0 190 0 190
-398 0 c-219 0 -402 -3 -405 -7z"/>
<path d="M4350 5492 c0 -5 33 -47 73 -93 39 -47 137 -162 216 -257 l145 -172
403 0 403 0 0 -1145 0 -1145 -403 0 -402 0 -218 -218 c-119 -119 -217 -221
-217 -225 0 -4 394 -7 875 -7 l875 0 0 1635 0 1635 -875 0 c-481 0 -875 -4
-875 -8z"/>
<path d="M6207 5493 c-4 -3 -7 -17 -7 -30 0 -23 2 -23 108 -23 l108 0 10 -79
c17 -126 66 -170 188 -171 53 0 77 5 108 22 58 33 71 66 76 186 l4 102 -294 0
c-162 0 -298 -3 -301 -7z m550 -79 c8 -22 -24 -121 -48 -145 -15 -15 -33 -19
-89 -19 -63 0 -73 3 -102 29 -27 24 -32 36 -36 90 l-4 61 136 0 c116 0 138 -2
143 -16z"/>
<path d="M190 3860 l0 -1630 882 0 883 0 -225 225 -225 225 -397 0 -398 0 0
1140 0 1140 399 0 400 0 107 128 c60 70 159 187 221 260 62 73 113 135 113
137 0 3 -396 5 -880 5 l-880 0 0 -1630z"/>
<path d="M2985 5473 c-86 -11 -257 -47 -329 -69 -109 -35 -304 -129 -402 -194
-140 -94 -296 -230 -263 -230 8 0 75 5 151 10 517 40 1124 -149 1643 -509 90
-62 90 -62 93 -36 4 30 -41 193 -100 363 -54 158 -160 376 -241 497 -104 155
-104 155 -178 165 -61 9 -312 11 -374 3z"/>
<path d="M3575 5393 c144 -189 250 -403 336 -682 87 -280 130 -684 109 -1020
-6 -101 -9 -185 -6 -188 15 -15 309 311 417 462 107 149 230 377 245 452 9 46
-108 269 -218 413 -161 214 -347 367 -593 489 -113 56 -285 121 -320 121 -4 0
9 -21 30 -47z"/>
<path d="M6200 5105 l0 -25 120 0 120 0 0 -100 0 -100 -120 0 -120 0 0 -25 0
-25 300 0 300 0 0 25 0 25 -150 0 -150 0 0 100 0 100 150 0 150 0 0 25 0 25
-300 0 -300 0 0 -25z"/>
<path d="M1995 4900 c-88 -8 -91 -10 -123 -47 -41 -47 -128 -185 -177 -282
-60 -119 -111 -277 -141 -436 -34 -180 -19 -592 26 -710 9 -24 30 -27 30 -4 0
28 116 248 187 354 98 146 191 254 354 408 221 208 444 362 723 501 158 77
160 79 133 92 -34 18 -289 79 -437 105 -132 23 -430 33 -575 19z"/>
<path d="M6310 4751 c-54 -12 -80 -30 -96 -66 -21 -51 -18 -133 6 -173 34 -56
64 -62 294 -62 l205 0 41 38 c38 37 40 41 40 101 0 38 -7 77 -16 97 -28 59
-56 67 -259 70 -99 2 -196 0 -215 -5z m262 -50 c117 -1 150 -10 167 -48 30
-65 -3 -133 -70 -147 -55 -11 -322 -6 -359 7 -28 10 -38 20 -48 52 -21 64 -7
95 56 126 45 22 60 25 100 18 26 -4 95 -8 154 -8z"/>
<path d="M6750 4355 l0 -65 -275 0 -275 0 0 -30 0 -30 275 0 275 0 0 -60 c0
-57 1 -60 25 -60 l25 0 0 155 0 155 -25 0 c-24 0 -25 -2 -25 -65z"/>
<path d="M4699 4260 c-103 -246 -263 -473 -481 -686 -261 -254 -514 -430 -833
-581 -49 -24 -91 -47 -93 -52 -5 -16 218 -75 423 -111 232 -42 668 -38 716 6
34 31 131 186 189 302 88 178 136 343 161 562 18 162 -3 436 -46 573 l-12 42
-24 -55z"/>
<path d="M2179 4083 c-159 -165 -238 -259 -331 -398 -93 -140 -208 -364 -208
-405 0 -45 126 -284 209 -395 135 -181 314 -339 512 -453 148 -85 409 -185
409 -157 0 3 -19 29 -43 58 -140 172 -277 473 -356 783 -57 225 -89 594 -75
878 5 103 6 192 3 197 -3 5 -57 -43 -120 -108z"/>
<path d="M6305 4071 c-77 -20 -105 -60 -105 -154 0 -67 30 -117 80 -134 43
-15 380 -17 431 -3 58 16 82 51 87 124 5 73 -14 124 -56 153 -23 16 -52 18
-217 20 -104 1 -203 -2 -220 -6z m405 -64 c47 -24 52 -132 7 -161 -17 -11 -71
-15 -221 -18 l-199 -3 -21 28 c-14 19 -21 43 -21 74 0 37 5 49 28 69 28 24 32
24 215 24 129 0 195 -4 212 -13z"/>
<path d="M6263 3680 c-18 -10 -39 -33 -48 -49 -20 -39 -19 -121 2 -165 24 -51
68 -69 191 -74 l102 -5 0 77 c0 74 -1 76 -25 76 -23 0 -25 -4 -25 -45 l0 -45
-70 0 c-80 0 -124 17 -134 52 -11 45 -6 96 13 119 19 24 23 24 213 27 169 2
197 0 227 -15 39 -20 55 -58 46 -111 -7 -40 -43 -65 -104 -72 -42 -5 -46 -8
-49 -34 l-4 -29 54 7 c116 16 153 60 146 174 -4 59 -7 67 -41 98 l-37 34 -212
0 c-194 0 -216 -2 -245 -20z"/>
<path d="M6200 3315 l0 -25 120 0 120 0 0 -54 c0 -62 3 -60 -146 -135 -81 -41
-94 -54 -94 -92 0 -17 17 -10 129 45 l129 65 26 -29 c42 -48 81 -63 152 -58
116 7 156 60 162 210 l4 98 -301 0 -301 0 0 -25z m556 -40 c-3 -11 -8 -44 -12
-74 -13 -98 -88 -145 -176 -108 -46 19 -64 54 -71 137 l-6 65 135 0 c130 0
135 -1 130 -20z"/>
<path d="M2430 3273 c0 -28 62 -249 104 -373 76 -220 289 -599 365 -649 22
-14 60 -16 271 -15 l245 0 137 37 c291 77 540 213 732 400 34 32 52 56 41 52
-40 -13 -382 -17 -508 -6 -369 32 -915 242 -1252 481 -134 95 -135 96 -135 73z"/>
<path d="M6200 2936 c0 -22 20 -33 93 -52 l67 -18 0 -91 0 -91 -74 -18 c-72
-18 -95 -37 -77 -63 6 -9 550 133 579 150 6 5 12 16 12 26 0 14 -49 31 -283
94 -156 42 -291 77 -300 77 -9 0 -17 -6 -17 -14z m488 -160 c3 -4 -241 -66
-257 -66 -12 0 -23 82 -16 113 l7 25 131 -35 c72 -19 133 -36 135 -37z"/>
<path d="M6200 2520 l0 -30 110 0 110 0 0 -30 c0 -56 22 -131 48 -162 34 -40
79 -58 147 -58 134 0 185 64 185 233 l0 77 -300 0 -300 0 0 -30z m560 -57 c0
-50 -21 -106 -51 -136 -28 -28 -33 -29 -99 -25 -96 5 -120 28 -127 122 l-6 66
142 0 141 0 0 -27z"/>
<path d="M6207 2183 c-4 -3 -7 -17 -7 -30 0 -23 1 -23 120 -23 l120 0 0 -100
0 -100 -121 0 -120 0 3 -27 3 -28 298 -3 297 -2 0 30 0 30 -150 0 -150 0 0
100 0 100 150 0 150 0 0 30 0 30 -293 0 c-162 0 -297 -3 -300 -7z"/>
<path d="M200 1530 l0 -440 178 0 c191 1 247 8 292 42 70 51 86 143 84 478 -1
169 -3 190 -23 236 -29 67 -65 100 -121 113 -25 6 -127 11 -227 11 l-183 0 0
-440z m293 261 c14 -6 29 -23 36 -42 12 -35 15 -297 5 -398 -8 -68 -13 -74
-83 -90 l-41 -9 0 274 0 274 29 0 c16 0 41 -4 54 -9z"/>
<path d="M797 1933 c8 -21 54 -126 101 -233 l85 -195 5 -207 4 -208 99 0 99 0
0 196 0 196 92 212 c50 116 97 226 105 243 l13 33 -107 0 -108 0 -44 -115
c-24 -63 -46 -115 -50 -115 -6 0 -54 115 -82 198 l-11 32 -108 0 -109 0 16
-37z"/>
<path d="M1460 1530 l0 -440 100 0 100 0 0 193 c0 105 4 198 9 205 7 12 59
-103 76 -170 10 -40 28 -49 86 -46 l53 3 41 117 c22 64 44 120 48 124 4 4 7
-90 7 -209 l0 -217 105 0 105 0 0 440 0 440 -108 0 -108 0 -67 -167 c-37 -93
-71 -174 -76 -182 -12 -19 -21 0 -97 189 l-62 155 -106 3 -106 3 0 -441z"/>
<path d="M2424 1961 c-53 -13 -98 -48 -124 -93 l-25 -43 0 -297 0 -296 30 -44
c21 -28 50 -53 90 -73 54 -28 67 -30 159 -30 81 0 110 5 147 22 81 37 119 110
119 231 l0 62 -95 0 -95 0 0 -49 c0 -100 -28 -131 -105 -117 -62 12 -66 32
-63 311 2 172 7 248 15 256 6 6 33 14 60 16 70 7 86 -9 91 -91 l4 -66 96 0 95
0 -5 84 c-7 105 -33 156 -98 194 -40 24 -56 27 -155 29 -60 1 -124 -2 -141 -6z"/>
<path d="M2910 1530 l0 -440 100 0 100 0 0 155 0 155 95 0 95 0 0 -155 0 -156
103 3 102 3 3 438 2 437 -105 0 -105 0 0 -195 0 -195 -95 0 -95 0 0 195 0 195
-100 0 -100 0 0 -440z"/>
<path d="M3620 1530 l0 -440 270 0 271 0 -3 83 -3 82 -162 3 -163 2 0 110 0
110 130 0 130 0 0 80 0 79 -127 3 -128 3 -3 78 -3 77 166 0 166 0 -3 83 -3 82
-267 3 -268 2 0 -440z"/>
<path d="M4240 1530 l0 -440 90 0 90 0 1 208 c1 281 3 285 64 137 27 -66 70
-169 95 -230 l46 -110 97 -3 97 -3 0 441 0 440 -95 0 -95 0 -1 -232 c0 -162
-3 -228 -10 -218 -6 8 -50 112 -99 230 l-87 215 -97 3 -96 3 0 -441z"/>
<path d="M4937 1963 c-4 -3 -7 -201 -7 -440 l0 -433 94 0 94 0 3 113 c4 97 7
117 28 150 13 21 27 35 32 30 4 -4 35 -71 67 -148 l59 -140 91 -3 c57 -2 92 1
92 7 0 6 -47 119 -105 252 l-104 241 89 173 c50 95 90 181 90 189 0 13 -15 16
-89 16 l-90 0 -78 -147 -78 -148 -3 148 -3 147 -88 0 c-48 0 -91 -3 -94 -7z"/>
<path d="M5683 1956 c-61 -20 -99 -50 -124 -104 -22 -44 -24 -62 -27 -262 -5
-269 5 -359 46 -409 16 -20 55 -49 87 -66 52 -27 68 -30 149 -30 50 0 110 6
134 13 54 16 117 73 132 117 7 20 12 141 13 312 2 249 0 282 -16 318 -26 59
-65 94 -121 110 -61 18 -215 19 -273 1z m204 -159 c12 -11 15 -59 16 -243 1
-126 -1 -245 -6 -265 -14 -67 -105 -78 -150 -18 -21 29 -21 36 -18 267 3 244
5 255 46 273 27 12 95 4 112 -14z"/>
<path d="M6202 1653 l3 -148 25 0 25 0 3 123 3 122 119 0 120 0 0 -100 0 -100
25 0 25 0 0 100 0 100 95 0 95 0 0 -120 0 -120 30 0 30 0 0 145 0 145 -300 0
-301 0 3 -147z"/>
<path d="M6207 1453 c-4 -3 -7 -17 -7 -30 0 -23 1 -23 120 -23 l120 0 0 -53 0
-52 -115 -60 c-97 -51 -115 -64 -121 -88 -3 -16 -4 -31 -1 -33 3 -3 60 22 126
56 l122 62 39 -36 c67 -60 166 -70 237 -23 53 36 66 69 71 184 l5 103 -295 0
c-162 0 -298 -3 -301 -7z m539 -119 c-8 -81 -17 -99 -58 -120 -40 -21 -120
-14 -156 13 -25 18 -27 27 -30 97 l-3 76 127 0 127 0 -7 -66z"/>
</g>
</svg>
